<svg width="24" height="24" viewBox="0 0 24 24" fill="none" xmlns="http://www.w3.org/2000/svg">
<path d="M20.1595 4.72656H3.77953C2.52953 4.72656 1.51953 5.73656 1.51953 6.98656V17.0666C1.51953 18.3166 2.52953 19.3266 3.77953 19.3266H20.1595C21.4095 19.3266 22.4295 18.3166 22.4295 17.0666V6.98656C22.4295 5.73656 21.4095 4.72656 20.1595 4.72656ZM5.66953 10.1966C4.94953 10.1966 4.34953 9.60656 4.34953 8.87656C4.34953 8.14656 4.94953 7.56656 5.66953 7.56656C6.38953 7.56656 6.98953 8.15656 6.98953 8.87656C6.98953 9.59656 6.39953 10.1966 5.66953 10.1966ZM11.9695 15.5466C10.0295 15.5466 8.44953 13.9666 8.44953 12.0266C8.44953 10.0866 10.0295 8.50656 11.9695 8.50656C13.9095 8.50656 15.4895 10.0866 15.4895 12.0266C15.4895 13.9666 13.9095 15.5466 11.9695 15.5466ZM18.2695 16.4966C17.5495 16.4966 16.9595 15.9066 16.9595 15.1766C16.9595 14.4466 17.5495 13.8666 18.2695 13.8666C18.9895 13.8666 19.5895 14.4566 19.5895 15.1766C19.5895 15.8966 18.9995 16.4966 18.2695 16.4966Z" fill="#00B23C"/>
<path d="M13.4895 12.0266C13.4895 12.8666 12.8095 13.5466 11.9695 13.5466C11.1295 13.5466 10.4495 12.8666 10.4495 12.0266C10.4495 11.1866 11.1295 10.5066 11.9695 10.5066C12.8095 10.5066 13.4895 11.1866 13.4895 12.0266Z" fill="#00B23C"/>
</svg>
